<?xml version="1.0"?>
<svg xmlns="http://www.w3.org/2000/svg" xmlns:xlink="http://www.w3.org/1999/xlink" xmlns:svgjs="http://svgjs.com/svgjs" version="1.1" width="512" height="512" x="0" y="0" viewBox="0 0 511.987 511.987" style="enable-background:new 0 0 512 512" xml:space="preserve" class=""><g><g xmlns="http://www.w3.org/2000/svg"><path d="m371.419 272.7c4.143 0 7.5-3.357 7.5-7.5v-3.436c0-4.143-3.357-7.5-7.5-7.5s-7.5 3.357-7.5 7.5v3.436c0 4.143 3.357 7.5 7.5 7.5z" fill="#ffffff" data-original="#000000" style=""/><path d="m420.003 292.825c1.919 0 3.839-.732 5.304-2.196l2.43-2.43c2.929-2.93 2.929-7.678 0-10.607-2.93-2.928-7.678-2.928-10.607 0l-2.43 2.43c-2.929 2.93-2.929 7.678 0 10.607 1.464 1.464 3.384 2.196 5.303 2.196z" fill="#ffffff" data-original="#000000" style=""/><path d="m443.562 341.409c4.143 0 7.5-3.357 7.5-7.5s-3.357-7.5-7.5-7.5h-3.436c-4.143 0-7.5 3.357-7.5 7.5s3.357 7.5 7.5 7.5z" fill="#ffffff" data-original="#000000" style=""/><path d="m299.274 326.409c-4.143 0-7.5 3.357-7.5 7.5s3.357 7.5 7.5 7.5h3.436c4.143 0 7.5-3.357 7.5-7.5s-3.357-7.5-7.5-7.5z" fill="#ffffff" data-original="#000000" style=""/><path d="m414.699 387.797 2.43 2.43c1.465 1.464 3.385 2.196 5.304 2.196s3.839-.732 5.304-2.196c2.929-2.93 2.929-7.678 0-10.607l-2.43-2.43c-2.93-2.928-7.678-2.928-10.607 0-2.93 2.929-2.93 7.677-.001 10.607z" fill="#ffffff" data-original="#000000" style=""/><path d="m363.919 402.618v3.435c0 4.143 3.357 7.5 7.5 7.5s7.5-3.357 7.5-7.5v-3.435c0-4.143-3.357-7.5-7.5-7.5s-7.5 3.357-7.5 7.5z" fill="#ffffff" data-original="#000000" style=""/><path d="m317.529 377.191-2.429 2.43c-2.928 2.929-2.927 7.678.003 10.606 1.464 1.464 3.383 2.195 5.302 2.195 1.92 0 3.84-.732 5.305-2.198l2.429-2.43c2.928-2.929 2.927-7.678-.003-10.606s-7.679-2.928-10.607.003z" fill="#ffffff" data-original="#000000" style=""/><path d="m328.138 280.023-2.429-2.43c-2.929-2.932-7.678-2.929-10.606-.003-2.93 2.929-2.931 7.678-.003 10.606l2.429 2.43c1.465 1.466 3.385 2.198 5.305 2.198 1.919 0 3.838-.732 5.302-2.195 2.929-2.928 2.93-7.677.002-10.606z" fill="#ffffff" data-original="#000000" style=""/><path d="m475.038 250.091c-3.359 2.423-4.119 7.11-1.697 10.471 15.47 21.455 23.646 46.818 23.646 73.348 0 69.239-56.33 125.569-125.568 125.569-69.239 0-125.569-56.33-125.569-125.569s56.33-125.569 125.569-125.569c30.53 0 59.962 11.095 82.873 31.24 3.108 2.734 7.848 2.432 10.584-.68 2.735-3.11 2.432-7.85-.68-10.584-20.542-18.064-45.769-29.62-72.557-33.509.747-26.007-2.158-52.794-8.169-74.487-1.913-6.903.044-14.337 5.107-19.399l7.67-7.67c10.298-10.299 10.731-26.563.985-37.028-4.943-5.308-11.652-8.301-18.891-8.43-12.708-.222-19.851 8.562-20.303 8.874-6.015 6.014-15.22 7.53-22.903 3.77-51.194-25.041-145.879-30.283-220.243-12.192-4.025.979-6.494 5.035-5.515 9.06s5.037 6.499 9.06 5.515c33.487-8.147 73.113-11.659 111.563-9.868 39.68 1.84 74.677 9.283 98.544 20.958 13.438 6.572 29.556 3.907 40.104-6.64.576-.419 3.519-4.645 9.428-4.48 3.132.056 6.037 1.354 8.181 3.654 4.144 4.449 3.867 11.716-.616 16.198l-7.67 7.67c-8.878 8.879-12.31 21.911-8.955 34.013 5.557 20.055 8.272 44.868 7.656 69.12-1.747-.065-3.497-.106-5.251-.106-68.302 0-125.373 48.97-137.971 113.642-58.021 2.91-119.453-5.903-157.975-22.822-12.969-5.695-28.466-2.74-38.562 7.354l-2.39 2.39c-4.461 4.463-11.721 4.463-16.182 0-4.462-4.461-4.462-11.721 0-16.183l6.234-6.234c8.813-8.814 12.268-21.767 9.013-33.803-8.777-32.459-7.991-78.673 1.91-112.384 3.616-12.312.249-25.572-8.786-34.606l-8.371-8.37c-4.462-4.463-4.462-11.723 0-16.184 4.461-4.463 11.721-4.463 16.182 0l3.634 3.634c10.39 10.388 26.272 13.165 39.529 6.913 3.981-1.878 8.325-3.702 12.911-5.422 3.879-1.454 5.844-5.776 4.39-9.655s-5.777-5.843-9.655-4.39c-4.969 1.862-9.694 3.848-14.046 5.9-7.546 3.562-16.597 1.972-22.521-3.954l-3.634-3.634c-10.311-10.309-27.086-10.309-37.396 0-10.31 10.31-10.31 27.086 0 37.397l8.372 8.371c5.153 5.152 7.069 12.729 5 19.772-10.603 36.1-11.425 85.662-1.998 120.526 1.857 6.865-.112 14.253-5.14 19.279l-6.234 6.235c-10.31 10.311-10.31 27.087 0 37.396 10.311 10.309 27.086 10.309 37.396 0l2.39-2.39c5.758-5.759 14.564-7.459 21.923-4.228 35.83 15.735 87.973 24.666 141.133 24.666 6.919 0 13.856-.161 20.777-.469-.326 3.897-.501 7.837-.501 11.817 0 77.51 63.06 140.569 140.569 140.569s140.568-63.06 140.568-140.569c0-29.698-9.156-58.095-26.479-82.121-2.427-3.355-7.113-4.113-10.473-1.692z" fill="#ffffff" data-original="#000000" style=""/><path d="m363.919 317.869-5.112-4.271c-3.178-2.656-7.909-2.231-10.563.946-2.656 3.178-2.232 7.908.946 10.563l17.421 14.557c4.836 4.046 12.309.641 12.309-5.755v-41.579c0-4.143-3.357-7.5-7.5-7.5s-7.5 3.357-7.5 7.5v25.539z" fill="#ffffff" data-original="#000000" style=""/><path d="m429.094 182.749h21.071c4.143 0 7.5-3.357 7.5-7.5s-3.357-7.5-7.5-7.5h-6.788l12.11-17.562c1.583-2.294 1.762-5.277.467-7.744-1.296-2.468-3.854-4.014-6.641-4.014h-19.688c-4.143 0-7.5 3.357-7.5 7.5s3.357 7.5 7.5 7.5h5.404l-12.11 17.562c-3.427 4.968.142 11.758 6.175 11.758z" fill="#ffffff" data-original="#000000" style=""/><path d="m476.42 159.493h28.067c4.143 0 7.5-3.357 7.5-7.5s-3.357-7.5-7.5-7.5h-13.784l18.824-27.296c1.583-2.294 1.762-5.277.467-7.744-1.296-2.468-3.854-4.014-6.641-4.014h-26.225c-4.143 0-7.5 3.357-7.5 7.5s3.357 7.5 7.5 7.5h11.941l-18.824 27.296c-3.427 4.968.142 11.758 6.175 11.758z" fill="#ffffff" data-original="#000000" style=""/><path d="m333.55 425.985c-1.282 3.938.872 8.171 4.812 9.452 10.657 3.468 21.78 5.227 33.058 5.227 58.865 0 106.755-47.89 106.755-106.755s-47.89-106.755-106.755-106.755-106.756 47.89-106.756 106.755c0 34.441 16.765 66.957 44.846 86.979 3.374 2.405 8.058 1.619 10.461-1.752 2.405-3.373 1.62-8.057-1.752-10.461-24.142-17.213-38.555-45.163-38.555-74.766 0-50.594 41.161-91.755 91.756-91.755 50.594 0 91.755 41.161 91.755 91.755s-41.161 91.755-91.755 91.755c-9.699 0-19.26-1.511-28.417-4.49-3.938-1.283-8.172.872-9.453 4.811z" fill="#ffffff" data-original="#000000" style=""/></g></g></svg>
