<?xml version="1.0"?>
<svg xmlns="http://www.w3.org/2000/svg" xmlns:xlink="http://www.w3.org/1999/xlink" xmlns:svgjs="http://svgjs.com/svgjs" version="1.1" width="512" height="512" x="0" y="0" viewBox="0 0 512.055 512.055" style="enable-background:new 0 0 512 512" xml:space="preserve"><g><g xmlns="http://www.w3.org/2000/svg"><path d="m489.527 497.028h-467c-7.98 0-15.195-4.086-19.298-10.931-4.103-6.845-4.308-15.134-.546-22.172l28.282-52.931c1.952-3.653 6.494-5.033 10.149-3.08 3.653 1.952 5.032 6.496 3.08 10.149l-28.282 52.931c-1.807 3.381-.474 6.295.183 7.391.657 1.095 2.598 3.644 6.433 3.644h306.675v-30.813c-34.22-4.498-60.933-39.417-60.933-81.688 0-4.142 3.358-7.5 7.5-7.5 26.529 0 49.582 18.224 60.933 44.793 11.351-26.569 34.403-44.793 60.933-44.793 4.142 0 7.5 3.358 7.5 7.5 0 42.271-26.713 77.189-60.933 81.688v30.813h145.325c3.834 0 5.776-2.548 6.433-3.644s1.989-4.009.183-7.391l-66.238-123.966h-191.168c-4.142 0-7.5-3.358-7.5-7.5s3.358-7.5 7.5-7.5h183.152l-40.074-75h-251.577l-40.074 75h117.745c4.142 0 7.5 3.358 7.5 7.5s-3.358 7.5-7.5 7.5c-10.719 0-20.008 6.683-23.854 16.099 3.596-.611 7.453-1.099 10.611-1.099 25.065 0 42.572 18.893 42.572 45.944 0 23.781-18.598 59.056-44.291 59.056-5.91 0-14.369-1.979-18.281-2.982-3.912 1.004-12.371 2.982-18.281 2.982-25.693 0-44.292-35.275-44.292-59.056 0-27.051 17.506-45.944 42.572-45.944 4.039 0 9.219.796 13.537 1.63 1.433-6.193 4.293-11.859 8.208-16.63h-94.261l-24.585 46.011c-1.952 3.652-6.494 5.032-10.149 3.08-3.653-1.952-5.032-6.496-3.08-10.149l191.847-359.046c3.921-7.338 11.525-11.896 19.845-11.896s15.924 4.559 19.845 11.896l38.879 72.763c1.952 3.653.573 8.198-3.08 10.149-3.653 1.953-8.197.573-10.149-3.08l-38.879-72.763c-1.913-3.579-5.263-3.966-6.615-3.966s-4.703.387-6.615 3.966l-63.069 118.035h14.82c4.142 0 7.5 3.358 7.5 7.5s-3.358 7.5-7.5 7.5h-22.834l-40.075 75h155.803l-15-15h-26.894c-20.678 0-37.5-16.822-37.5-37.5s16.822-37.5 37.5-37.5h73.548l-10.133-18.965c-1.952-3.653-.573-8.198 3.08-10.149 3.654-1.952 8.197-.573 10.149 3.08l180.565 337.931c3.761 7.039 3.557 15.327-.546 22.172-4.106 6.844-11.32 10.931-19.301 10.931zm-314.86-48.243c.678 0 1.356.092 2.015.275 2.963.825 11.667 2.967 16.265 2.967 6.583 0 13.773-5.25 19.729-14.405 5.898-9.067 9.563-20.429 9.563-29.65 0-14.275-7.221-30.944-27.572-30.944-5.183 0-14.858 2.173-18.148 3.011-1.214.31-2.489.31-3.703 0-3.291-.837-12.965-3.011-18.148-3.011-20.351 0-27.572 16.669-27.572 30.944 0 9.222 3.664 20.583 9.563 29.65 5.955 9.155 13.146 14.405 19.729 14.405 4.599 0 13.302-2.143 16.268-2.968.656-.183 1.333-.274 2.011-.274zm109.002-71.025c2.918 29.908 21.532 53.797 45.135 58.213-2.919-29.908-21.533-53.797-45.135-58.213zm106.067 0c-23.603 4.416-42.216 28.305-45.135 58.213 23.603-4.416 42.217-28.305 45.135-58.213zm-74.466-135.732h58.53l-40.074-75h-51.581c4.718 6.271 7.518 14.065 7.518 22.5v26.894zm-63.107-75c-12.407 0-22.5 10.093-22.5 22.5s10.093 22.5 22.5 22.5h22.5v-22.5c0-12.407-10.093-22.5-22.5-22.5zm-24.886 146.985c-3.587 2.071-8.174.842-10.245-2.745l-15-25.98c-2.071-3.587-.842-8.174 2.745-10.245s8.174-.842 10.245 2.745l15 25.98c2.072 3.587.843 8.174-2.745 10.245zm40 0c-3.587 2.071-8.174.842-10.245-2.745l-15-25.98c-2.071-3.587-.842-8.174 2.745-10.245 3.586-2.071 8.174-.842 10.245 2.745l15 25.98c2.072 3.587.843 8.174-2.745 10.245zm40 0c-3.587 2.071-8.174.842-10.245-2.745l-15-25.98c-2.071-3.587-.842-8.174 2.745-10.245s8.174-.842 10.245 2.745l15 25.98c2.072 3.587.843 8.174-2.745 10.245zm-51.25-176.985c-14.317 0-25.966-11.648-25.966-25.966 0-11.535 15.068-35.498 19.687-42.567 1.385-2.121 3.746-3.398 6.279-3.398s4.894 1.278 6.279 3.398c4.619 7.069 19.687 31.033 19.687 42.567 0 14.318-11.648 25.966-25.966 25.966zm0-50.126c-5.989 10.303-10.966 20.607-10.966 24.16 0 6.046 4.919 10.966 10.966 10.966 6.046 0 10.966-4.919 10.966-10.966 0-3.553-4.976-13.857-10.966-24.16z" fill="#ffffff" data-original="#000000" style=""/></g></g></svg>
