<?xml version="1.0"?>
<svg xmlns="http://www.w3.org/2000/svg" xmlns:xlink="http://www.w3.org/1999/xlink" xmlns:svgjs="http://svgjs.com/svgjs" version="1.1" width="512" height="512" x="0" y="0" viewBox="0 0 512 512" style="enable-background:new 0 0 512 512" xml:space="preserve" class=""><g>
<g xmlns="http://www.w3.org/2000/svg">
	<g>
		<path d="M496,319.996c-8.832,0-16,7.168-16,16v112H32v-192h176c8.832,0,16-7.168,16-16c0-8.832-7.168-16-16-16H32v-64h176    c8.832,0,16-7.168,16-16c0-8.832-7.168-16-16-16H32c-17.664,0-32,14.336-32,32v288c0,17.664,14.336,32,32,32h448    c17.664,0,32-14.336,32-32v-112C512,327.164,504.832,319.996,496,319.996z" fill="#0e2c4b" data-original="#000000" style="" class=""/>
	</g>
</g>
<g xmlns="http://www.w3.org/2000/svg">
	<g>
		<path d="M144,319.996H80c-8.832,0-16,7.168-16,16c0,8.832,7.168,16,16,16h64c8.832,0,16-7.168,16-16    C160,327.164,152.832,319.996,144,319.996z" fill="#0e2c4b" data-original="#000000" style="" class=""/>
	</g>
</g>
<g xmlns="http://www.w3.org/2000/svg">
	<g>
		<path d="M502.304,81.276l-112-48c-4.064-1.696-8.576-1.696-12.64,0l-112,48c-5.856,2.528-9.664,8.32-9.664,14.72v64    c0,88.032,32.544,139.488,120.032,189.888c2.464,1.408,5.216,2.112,7.968,2.112s5.504-0.704,7.968-2.112    C479.456,299.612,512,248.156,512,159.996v-64C512,89.596,508.192,83.804,502.304,81.276z M480,159.996    c0,73.888-24.448,114.56-96,157.44c-71.552-42.976-96-83.648-96-157.44v-53.44l96-41.152l96,41.152V159.996z" fill="#0e2c4b" data-original="#000000" style="" class=""/>
	</g>
</g>
<g xmlns="http://www.w3.org/2000/svg">
	<g>
		<path d="M442.016,131.484c-6.88-5.44-16.928-4.384-22.496,2.496l-50.304,62.912l-19.904-29.76    c-4.96-7.36-14.912-9.312-22.176-4.448c-7.328,4.896-9.344,14.848-4.448,22.176l32,48c2.848,4.256,7.52,6.88,12.64,7.136    c0.224,0,0.48,0,0.672,0c4.832,0,9.44-2.176,12.512-6.016l64-80C450.016,147.068,448.928,137.02,442.016,131.484z" fill="#0e2c4b" data-original="#000000" style="" class=""/>
	</g>
</g>
<g xmlns="http://www.w3.org/2000/svg">
</g>
<g xmlns="http://www.w3.org/2000/svg">
</g>
<g xmlns="http://www.w3.org/2000/svg">
</g>
<g xmlns="http://www.w3.org/2000/svg">
</g>
<g xmlns="http://www.w3.org/2000/svg">
</g>
<g xmlns="http://www.w3.org/2000/svg">
</g>
<g xmlns="http://www.w3.org/2000/svg">
</g>
<g xmlns="http://www.w3.org/2000/svg">
</g>
<g xmlns="http://www.w3.org/2000/svg">
</g>
<g xmlns="http://www.w3.org/2000/svg">
</g>
<g xmlns="http://www.w3.org/2000/svg">
</g>
<g xmlns="http://www.w3.org/2000/svg">
</g>
<g xmlns="http://www.w3.org/2000/svg">
</g>
<g xmlns="http://www.w3.org/2000/svg">
</g>
<g xmlns="http://www.w3.org/2000/svg">
</g>
</g></svg>
