<?xml version="1.0" encoding="utf-8"?>
<!-- Generator: Adobe Illustrator 22.1.0, SVG Export Plug-In . SVG Version: 6.00 Build 0)  -->
<svg version="1.1" id="Capa_1" xmlns="http://www.w3.org/2000/svg" xmlns:xlink="http://www.w3.org/1999/xlink" x="0px" y="0px"
	 viewBox="0 0 401.5 401.5" style="enable-background:new 0 0 401.5 401.5;" xml:space="preserve">
<style type="text/css">
	.st0{fill:#2F62F2;}
</style>
<path class="st0" d="M367.2,252.3c-2.3-0.6-4.7,0.7-5.4,3.1c-19.7,71.9-84.2,120.2-160.5,120.2c-73.8,0-144.1-56.8-163.5-132.1
	c-0.1-0.5-1.2-5-5-5H10.7l37.8-50.3l39,50.3H63.9c-2.4,0-4.4,2-4.4,4.4s2,4.4,4.4,4.4h27c3.2,0,5.7-1.4,6.8-3.7
	c1.2-2.4,0.7-5.2-1.2-7.7l-41.2-53.1c-1.7-2.2-4.2-3.5-6.8-3.5c0,0,0,0-0.1,0c-2.6,0-5.1,1.3-6.8,3.6l-39.8,53
	c-1.9,2.5-2.3,5.4-1.1,7.7c1.2,2.4,3.7,3.7,6.9,3.7H30c9.9,37,31.9,71.1,62.1,96.2c31.7,26.4,70.6,40.9,109.3,40.9
	c39.4,0,76.4-12.3,107.1-35.5c30.4-23,51.7-54.5,61.8-91.1C370.9,255.3,369.5,252.9,367.2,252.3z"/>
<path class="st0" d="M400.8,157.9c-1.2-2.4-3.7-3.7-6.9-3.7h-22.4c-9.9-37-31.9-71.1-62.1-96.2c-31.7-26.4-70.6-40.9-109.3-40.9
	c-39.4,0-76.4,12.3-107.2,35.5c-30.4,23-51.7,54.5-61.8,91.1c-0.6,2.3,0.7,4.7,3.1,5.4c2.3,0.6,4.7-0.7,5.4-3.1
	C59.3,74.2,123.8,25.9,200.1,25.9c73.8,0,144.1,56.8,163.5,132.1c0.1,0.5,1.3,5,5,5h22.2L353,213.3L314,163h23.6
	c2.4,0,4.4-2,4.4-4.4s-2-4.4-4.4-4.4h-27c-3.2,0-5.7,1.4-6.8,3.7c-1.2,2.4-0.7,5.2,1.2,7.7l41.2,53.1c1.7,2.2,4.2,3.5,6.8,3.5
	c0,0,0,0,0.1,0c2.6,0,5.1-1.3,6.8-3.6l39.8-53C401.6,163.1,402,160.3,400.8,157.9z"/>
<g>
	<path class="st0" d="M117.1,233.6v-56.3l-12.8,5.2l-2.6-7l18.5-7.7h5.8v65.8H117.1z"/>
	<path class="st0" d="M187.8,200.7c0,4.9-0.5,9.4-1.4,13.5c-1,4.2-2.4,7.7-4.4,10.8c-2,3-4.5,5.4-7.5,7.2c-3,1.7-6.6,2.6-10.8,2.6
		s-7.7-0.9-10.8-2.6c-3-1.7-5.5-4.1-7.5-7.2c-2-3-3.4-6.6-4.4-10.8s-1.4-8.7-1.4-13.5s0.5-9.3,1.4-13.5c1-4.2,2.4-7.8,4.4-10.8
		s4.5-5.4,7.5-7.2c3-1.7,6.6-2.6,10.8-2.6s7.7,0.9,10.8,2.6c3,1.7,5.5,4.1,7.5,7.2c2,3,3.4,6.6,4.4,10.8
		C187.3,191.4,187.8,195.9,187.8,200.7z M163.7,227.5c2.8,0,5.1-0.7,7-2s3.5-3.2,4.6-5.5c1.2-2.4,2.1-5.2,2.6-8.5
		c0.6-3.3,0.8-6.9,0.8-10.8c0-3.9-0.3-7.5-0.8-10.8c-0.6-3.3-1.4-6.1-2.6-8.5c-1.2-2.4-2.7-4.2-4.6-5.5c-1.9-1.3-4.3-2-7-2
		c-2.8,0-5.1,0.7-7,2s-3.5,3.2-4.6,5.5c-1.2,2.4-2.1,5.2-2.6,8.5s-0.8,6.9-0.8,10.8c0,3.9,0.3,7.5,0.8,10.8c0.6,3.3,1.4,6.1,2.6,8.5
		c1.2,2.4,2.7,4.2,4.6,5.5C158.6,226.9,160.9,227.5,163.7,227.5z"/>
	<path class="st0" d="M246.3,200.7c0,4.9-0.5,9.4-1.4,13.5c-1,4.2-2.4,7.7-4.4,10.8c-2,3-4.5,5.4-7.5,7.2c-3,1.7-6.6,2.6-10.8,2.6
		s-7.7-0.9-10.8-2.6c-3-1.7-5.5-4.1-7.5-7.2c-2-3-3.4-6.6-4.4-10.8s-1.4-8.7-1.4-13.5s0.5-9.3,1.4-13.5c1-4.2,2.4-7.8,4.4-10.8
		s4.5-5.4,7.5-7.2c3-1.7,6.6-2.6,10.8-2.6s7.7,0.9,10.8,2.6c3,1.7,5.5,4.1,7.5,7.2c2,3,3.4,6.6,4.4,10.8
		C245.8,191.4,246.3,195.9,246.3,200.7z M222.2,227.5c2.8,0,5.1-0.7,7-2s3.5-3.2,4.6-5.5c1.2-2.4,2.1-5.2,2.6-8.5
		c0.6-3.3,0.8-6.9,0.8-10.8c0-3.9-0.3-7.5-0.8-10.8c-0.6-3.3-1.4-6.1-2.6-8.5c-1.2-2.4-2.7-4.2-4.6-5.5c-1.9-1.3-4.2-2-7-2
		s-5.1,0.7-7,2s-3.5,3.2-4.6,5.5c-1.2,2.4-2.1,5.2-2.6,8.5s-0.8,6.9-0.8,10.8c0,3.9,0.3,7.5,0.8,10.8c0.6,3.3,1.4,6.1,2.6,8.5
		c1.2,2.4,2.7,4.2,4.6,5.5S219.4,227.5,222.2,227.5z"/>
	<path class="st0" d="M280.8,205.1v20.2H273v-20.2h-19v-6.7h19v-20.2h7.7v20.2h19v6.7H280.8z"/>
</g>
</svg>
