<?xml version="1.0"?>
<svg xmlns="http://www.w3.org/2000/svg" xmlns:xlink="http://www.w3.org/1999/xlink" xmlns:svgjs="http://svgjs.com/svgjs" version="1.1" width="512" height="512" x="0" y="0" viewBox="0 0 74 74" style="enable-background:new 0 0 512 512" xml:space="preserve" class=""><g><path xmlns="http://www.w3.org/2000/svg" d="m46.66 61.29h-19.32a1 1 0 0 1 -1-.86l-.87-6c-3.88-4-5.75-9.79-6.38-12.06-11.9 2.18-17-8.67-17-8.78a1 1 0 0 1 .38-1.26 11.91 11.91 0 0 0 1.1-2.19c.93-2.12 2.2-5 4.34-6.53a19.2 19.2 0 0 0 4.38-4.61 4.25 4.25 0 0 1 2.77-1.78 4.18 4.18 0 0 1 2.08.19l4.62 1.59a1 1 0 0 1 .67.94v3.65a1 1 0 0 1 -.68.95l-3.55 1.19a1 1 0 0 1 -1-.24l-1.72-1.69a6.94 6.94 0 0 0 -1.36 3.38 14 14 0 0 1 -.35 2.11 4.44 4.44 0 0 1 2.84-.52 4.07 4.07 0 0 1 2.77 1.81c2.59-.95 7-1.44 9.79 1.88a6.92 6.92 0 0 0 2.7-1.12l1.2 1.6a9.06 9.06 0 0 1 -4.24 1.59 1 1 0 0 1 -.89-.41c-3-4-8.51-1.4-8.56-1.37a1 1 0 0 1 -.79 0 1 1 0 0 1 -.57-.55 2.23 2.23 0 0 0 -3.73-.83 7.6 7.6 0 0 1 -3.35 2 1 1 0 0 1 -1-1.67c1.4-1.4 1.9-2 2.2-4.79a8.7 8.7 0 0 1 2.65-5.37 1 1 0 0 1 1.36.05l2 2 2.28-.78v-2.18l-3.95-1.38a2.19 2.19 0 0 0 -1.08-.1 2.27 2.27 0 0 0 -1.46.94 21.17 21.17 0 0 1 -4.89 5.18c-1.67 1.17-2.82 3.79-3.65 5.73a14.79 14.79 0 0 1 -1.19 2.4c1.17 2.13 5.85 9.13 15.4 6.88a1 1 0 0 1 .76.12 1 1 0 0 1 .45.64c0 .07 1.73 7.7 6.31 12.27a1 1 0 0 1 .28.57l.79 5.45h17.6l.79-5.45a1 1 0 0 1 .28-.57 19.56 19.56 0 0 0 3.13-4.31l1.74 1a21.62 21.62 0 0 1 -3.24 4.45l-.87 6a1 1 0 0 1 -.97.84z" fill="#ffffff" data-original="#000000" style="" class=""/><path xmlns="http://www.w3.org/2000/svg" d="m53.56 46.29-1.86-.76a31.55 31.55 0 0 0 1.48-4.53 1 1 0 0 1 1.21-.76c9.59 2.26 14.24-4.75 15.4-6.87a15.84 15.84 0 0 1 -1.19-2.37c-.83-1.9-2-4.52-3.65-5.69a21.07 21.07 0 0 1 -4.88-5.17 2.21 2.21 0 0 0 -2.55-.85l-4 1.38v2.22l2.29.78 2-2a1 1 0 0 1 1.36-.05 8.7 8.7 0 0 1 2.69 5.38 8.6 8.6 0 0 0 .68 2.91 7.4 7.4 0 0 0 1.53 1.88 1 1 0 0 1 -1 1.68 7.61 7.61 0 0 1 -3.39-2 2.23 2.23 0 0 0 -3.73.83 1 1 0 0 1 -.57.55 1 1 0 0 1 -.79 0c-.22-.11-5.61-2.65-8.56 1.37a1 1 0 0 1 -.89.41 9.06 9.06 0 0 1 -4.24-1.59l1.2-1.6a6.86 6.86 0 0 0 2.7 1.12c2.84-3.32 7.2-2.83 9.79-1.88a4.07 4.07 0 0 1 2.77-1.81 4.45 4.45 0 0 1 2.83.52 15.46 15.46 0 0 1 -.34-2.12 6.94 6.94 0 0 0 -1.36-3.37l-1.68 1.69a1 1 0 0 1 -1 .24l-3.56-1.21a1 1 0 0 1 -.68-.95v-3.75a1 1 0 0 1 .67-.94l4.62-1.61a4.33 4.33 0 0 1 2.06-.19 4.19 4.19 0 0 1 2.8 1.82 19.1 19.1 0 0 0 4.37 4.66c2.14 1.49 3.41 4.41 4.34 6.53a11.45 11.45 0 0 0 1.12 2.21 1 1 0 0 1 .36 1.24c0 .12-5.11 11-17 8.78a36.31 36.31 0 0 1 -1.35 3.87z" fill="#ffffff" data-original="#000000" style="" class=""/><path xmlns="http://www.w3.org/2000/svg" d="m37 36.53c-5.11 0-8.51-9.09-8.51-15.1 0-5.71 2.94-8.72 8.51-8.72s8.51 3 8.51 8.72c0 6.01-3.39 15.1-8.51 15.1zm0-21.82c-4.5 0-6.51 2.07-6.51 6.72 0 5.72 3.16 13.1 6.51 13.1s6.51-7.38 6.51-13.1c0-4.65-2.01-6.72-6.51-6.72z" fill="#ffffff" data-original="#000000" style="" class=""/></g></svg>
