<?xml version="1.0"?>
<svg xmlns="http://www.w3.org/2000/svg" xmlns:xlink="http://www.w3.org/1999/xlink" xmlns:svgjs="http://svgjs.com/svgjs" version="1.1" width="512" height="512" x="0" y="0" viewBox="0 0 512.009 512.009" style="enable-background:new 0 0 512 512" xml:space="preserve" class=""><g><g xmlns="http://www.w3.org/2000/svg"><path d="m233.175 365.832c-.633-5.486-5.593-9.403-11.08-8.787l-148.544 17.14c-5.484.634-9.418 5.591-8.788 11.076l5.941 51.709c4.983 43.143 41.717 75.04 84.141 75.04 3.232 0 6.502-.186 9.789-.565 22.421-2.572 42.54-13.786 56.65-31.575 14.106-17.785 20.449-39.922 17.86-62.334zm-27.56 101.608c-10.788 13.601-26.151 22.172-43.269 24.136-35.484 4.095-67.676-21.427-71.774-56.896l-4.8-41.773 128.682-14.848 4.823 41.771c1.976 17.103-2.877 34.011-13.662 47.61z" fill="#ffffff" data-original="#000000" style="" class=""/><path d="m122.271 144.091c-23.617 2.721-44.502 18.081-60.396 44.421-27.038 44.809-34.161 112.775-16.568 158.096 1.506 3.879 5.233 6.381 9.317 6.381.381 0 .766-.021 1.151-.066l178.759-20.636c4.519-.521 8.115-4.026 8.755-8.529 6.826-48.121-15.573-112.676-52.104-150.159-21.473-22.035-45.306-32.237-68.914-29.508zm101.997 169.248-162.807 18.795c-11.976-39.442-4.803-96.264 17.539-133.29 8.768-14.529 23.789-32.377 45.565-34.885 1.74-.201 3.459-.297 5.158-.297 19.55 0 36.241 12.712 47.14 23.895 30.184 30.971 50.097 84.664 47.405 125.782z" fill="#ffffff" data-original="#000000" style="" class=""/><path d="m439.214 230.037-148.686-15.832c-5.492-.589-10.417 3.393-11.002 8.884l-5.516 51.733c-4.941 46.481 28.856 88.318 75.342 93.261 3.033.322 6.046.479 9.03.479 42.752 0 79.609-32.354 84.231-75.796l5.485-51.731c.584-5.491-3.394-10.414-8.884-10.998zm-16.489 60.617c-3.777 35.504-35.753 61.322-71.258 57.54-35.52-3.776-61.345-35.742-57.569-71.255l4.455-41.788 128.804 13.715z" fill="#ffffff" data-original="#000000" style="" class=""/><path d="m449.226 44.242c-16.126-26.193-37.143-41.363-60.775-43.871-23.646-2.525-47.379 7.892-68.655 30.111-36.197 37.802-58.031 102.553-50.789 150.615.678 4.498 4.307 7.973 8.83 8.454l89.483 9.522 89.479 9.493c.355.037.709.056 1.06.056 4.119 0 7.867-2.544 9.35-6.465 17.182-45.465 9.451-113.355-17.983-157.915zm1.699 143.59-81.491-8.646-81.496-8.673c-3.048-41.098 16.395-94.964 46.304-126.199 11.737-12.258 30.304-26.376 52.094-24.056 21.788 2.312 36.965 20.021 45.86 34.469 22.667 36.819 30.348 93.566 18.729 133.105z" fill="#ffffff" data-original="#000000" style="" class=""/></g></g></svg>
