<?xml version="1.0"?>
<svg xmlns="http://www.w3.org/2000/svg" xmlns:xlink="http://www.w3.org/1999/xlink" xmlns:svgjs="http://svgjs.com/svgjs" version="1.1" width="512" height="512" x="0" y="0" viewBox="0 0 74 74" style="enable-background:new 0 0 512 512" xml:space="preserve"><g><path xmlns="http://www.w3.org/2000/svg" d="m26.658 63.717h-17.125a1 1 0 0 1 -1-1v-59.717a1 1 0 0 1 1-1h35.578a1 1 0 0 1 0 2h-34.578v57.717h16.125a1 1 0 1 1 0 2z" fill="#ffffff" data-original="#000000" style=""/><path xmlns="http://www.w3.org/2000/svg" d="m56.86 50.823a1 1 0 0 1 -1-1v-35.073a1 1 0 0 1 2 0v35.073a1 1 0 0 1 -1 1z" fill="#ffffff" data-original="#000000" style=""/><path xmlns="http://www.w3.org/2000/svg" d="m56.859 15.748h-11.746a1 1 0 0 1 -1-1v-11.748a1 1 0 0 1 1.707-.7l11.746 11.741a1 1 0 0 1 -.707 1.707zm-10.746-2h8.332l-8.332-8.331z" fill="#ffffff" data-original="#000000" style=""/><path xmlns="http://www.w3.org/2000/svg" d="m23.027 35.5h-6.747a1 1 0 0 1 -1-1v-6.766a1 1 0 0 1 1-1h6.748a1 1 0 0 1 1 1v6.766a1 1 0 0 1 -1.001 1zm-5.748-2h4.748v-4.766h-4.747z" fill="#ffffff" data-original="#000000" style=""/><path xmlns="http://www.w3.org/2000/svg" d="m50.114 32.117h-21.739a1 1 0 0 1 0-2h21.739a1 1 0 0 1 0 2z" fill="#ffffff" data-original="#000000" style=""/><path xmlns="http://www.w3.org/2000/svg" d="m23.027 47.879h-6.747a1 1 0 0 1 -1-1v-6.765a1 1 0 0 1 1-1h6.748a1 1 0 0 1 1 1v6.765a1 1 0 0 1 -1.001 1zm-5.748-2h4.748v-4.765h-4.747z" fill="#ffffff" data-original="#000000" style=""/><path xmlns="http://www.w3.org/2000/svg" d="m50.114 44.5h-21.739a1 1 0 0 1 0-2h21.739a1 1 0 0 1 0 2z" fill="#ffffff" data-original="#000000" style=""/><path xmlns="http://www.w3.org/2000/svg" d="m23.027 23.119h-6.747a1 1 0 0 1 -1-1v-6.765a1 1 0 0 1 1-1h6.748a1 1 0 0 1 1 1v6.765a1 1 0 0 1 -1.001 1zm-5.748-2h4.748v-4.765h-4.747z" fill="#ffffff" data-original="#000000" style=""/><path xmlns="http://www.w3.org/2000/svg" d="m37.5 19.736h-9.125a1 1 0 0 1 0-2h9.125a1 1 0 0 1 0 2z" fill="#ffffff" data-original="#000000" style=""/><path xmlns="http://www.w3.org/2000/svg" d="m56.709 72a3.765 3.765 0 0 1 -3.761-3.761v-15.661a3.761 3.761 0 1 1 7.522 0v15.661a3.766 3.766 0 0 1 -3.761 3.761zm0-21.184a1.763 1.763 0 0 0 -1.761 1.761v15.662a1.761 1.761 0 1 0 3.522 0v-15.661a1.763 1.763 0 0 0 -1.761-1.762z" fill="#ffffff" data-original="#000000" style=""/><path xmlns="http://www.w3.org/2000/svg" d="m61.969 68.576a3.5 3.5 0 0 1 -3.5-3.5v-9.337a3.5 3.5 0 1 1 7 0v9.339a3.5 3.5 0 0 1 -3.5 3.498zm0-14.336a1.5 1.5 0 0 0 -1.5 1.5v9.339a1.5 1.5 0 1 0 3 0v-9.34a1.5 1.5 0 0 0 -1.5-1.499z" fill="#ffffff" data-original="#000000" style=""/><path xmlns="http://www.w3.org/2000/svg" d="m34.416 72a3.766 3.766 0 0 1 -3.761-3.761v-15.661a3.761 3.761 0 1 1 7.522 0v15.661a3.765 3.765 0 0 1 -3.761 3.761zm0-21.184a1.763 1.763 0 0 0 -1.761 1.761v15.662a1.761 1.761 0 1 0 3.522 0v-15.661a1.763 1.763 0 0 0 -1.761-1.762z" fill="#ffffff" data-original="#000000" style=""/><path xmlns="http://www.w3.org/2000/svg" d="m29.156 68.576a3.5 3.5 0 0 1 -3.5-3.5v-9.337a3.5 3.5 0 1 1 7 0v9.339a3.5 3.5 0 0 1 -3.5 3.498zm0-14.336a1.5 1.5 0 0 0 -1.5 1.5v9.339a1.5 1.5 0 1 0 3 0v-9.34a1.5 1.5 0 0 0 -1.5-1.499z" fill="#ffffff" data-original="#000000" style=""/><path xmlns="http://www.w3.org/2000/svg" d="m53.95 63.852h-16.775a1 1 0 0 1 -1-1v-4.888a1 1 0 0 1 1-1h16.775a1 1 0 0 1 1 1v4.888a1 1 0 0 1 -1 1zm-15.775-2h14.775v-2.888h-14.775z" fill="#ffffff" data-original="#000000" style=""/></g></svg>
