<?xml version="1.0"?>
<svg xmlns="http://www.w3.org/2000/svg" xmlns:xlink="http://www.w3.org/1999/xlink" xmlns:svgjs="http://svgjs.com/svgjs" version="1.1" width="512" height="512" x="0" y="0" viewBox="0 0 600 600" style="enable-background:new 0 0 512 512" xml:space="preserve" class=""><g><path xmlns="http://www.w3.org/2000/svg" d="m251.25 12.5c0-6.90625-5.59375-12.5-12.5-12.5h-226.25c-6.90625 0-12.5 5.59375-12.5 12.5v226.25c0 6.90625 5.59375 12.5 12.5 12.5h226.25c6.90625 0 12.5-5.59375 12.5-12.5zm-25 213.75h-201.25v-201.25h201.25zm0 0" fill="#ffffff" data-original="#000000" style="" class=""/><path xmlns="http://www.w3.org/2000/svg" d="m562.5 12.5c0-6.90625-5.59375-12.5-12.5-12.5h-226.25c-6.90625 0-12.5 5.59375-12.5 12.5v226.25c0 6.90625 5.59375 12.5 12.5 12.5h226.25c6.90625 0 12.5-5.59375 12.5-12.5zm-25 213.75h-201.25v-201.25h201.25zm0 0" fill="#ffffff" data-original="#000000" style="" class=""/><path xmlns="http://www.w3.org/2000/svg" d="m251.25 323.75c0-6.90625-5.59375-12.5-12.5-12.5h-226.25c-6.90625 0-12.5 5.59375-12.5 12.5v226.25c0 6.90625 5.59375 12.5 12.5 12.5h226.25c6.90625 0 12.5-5.59375 12.5-12.5zm-25 212.5h-201.25v-200h201.25zm0 0" fill="#ffffff" data-original="#000000" style="" class=""/><path xmlns="http://www.w3.org/2000/svg" d="m562.5 323.75c0-6.90625-5.59375-12.5-12.5-12.5h-226.25c-6.90625 0-12.5 5.59375-12.5 12.5v226.25c0 6.90625 5.59375 12.5 12.5 12.5h226.25c6.90625 0 12.5-5.59375 12.5-12.5zm-25 212.5h-201.25v-200h201.25zm0 0" fill="#ffffff" data-original="#000000" style="" class=""/></g></svg>
