<?xml version="1.0"?>
<svg xmlns="http://www.w3.org/2000/svg" xmlns:xlink="http://www.w3.org/1999/xlink" xmlns:svgjs="http://svgjs.com/svgjs" version="1.1" width="512" height="512" x="0" y="0" viewBox="0 0 511.941 511.941" style="enable-background:new 0 0 512 512" xml:space="preserve" class=""><g><g xmlns="http://www.w3.org/2000/svg"><path d="m200.418 496.941h-72.317c-9.446 0-17.131-7.685-17.131-17.131v-9.559c0-9.446 7.685-17.131 17.131-17.131h61.149c4.142 0 7.5-3.358 7.5-7.5s-3.358-7.5-7.5-7.5h-61.149c-9.446 0-17.131-7.685-17.131-17.131v-9.559c0-9.446 7.685-17.131 17.131-17.131h58.352c4.142 0 7.5-3.358 7.5-7.5s-3.358-7.5-7.5-7.5h-58.352c-9.446 0-17.131-7.685-17.131-17.131v-9.559c0-9.446 7.685-17.131 17.131-17.131h55.555c4.142 0 7.5-3.358 7.5-7.5s-3.358-7.5-7.5-7.5h-55.555c-9.446 0-17.131-7.685-17.131-17.131v-9.559c0-9.44 7.676-17.121 17.114-17.13.004 0 .007.001.01.001.007 0 .014-.001.022-.001h52.743c4.142 0 7.5-3.358 7.5-7.5s-3.358-7.5-7.5-7.5h-50.796c-11.813-6.827-19.093-19.335-19.093-33.075v-19.156c0-4.142-3.358-7.5-7.5-7.5s-7.5 3.358-7.5 7.5v19.156c0 14.404 5.739 27.848 15.594 37.669-9.336 5.628-15.594 15.864-15.594 27.537v9.559c0 9.882 4.487 18.732 11.527 24.631-7.04 5.899-11.527 14.749-11.527 24.631v9.559c0 9.882 4.487 18.732 11.527 24.631-7.04 5.899-11.527 14.749-11.527 24.631v9.559c0 9.882 4.487 18.732 11.527 24.631-7.04 5.899-11.527 14.749-11.527 24.631v9.559c0 17.717 14.414 32.131 32.131 32.131h72.317c4.142 0 7.5-3.358 7.5-7.5s-3.357-7.501-7.5-7.501z" fill="#ffffff" data-original="#000000" style="" class=""/><path d="m103.471 184.967c4.142 0 7.5-3.358 7.5-7.5v-16.007c0-14.344 7.912-27.354 20.648-33.951l47.51-24.611c2.488-1.289 4.05-3.857 4.05-6.66v-14.036h82.584v14.036c0 2.802 1.562 5.371 4.05 6.66l47.511 24.611c12.736 6.598 20.648 19.607 20.648 33.951v58.666c0 4.142 3.357 7.5 7.5 7.5s7.5-3.358 7.5-7.5v-58.666c0-19.972-11.016-38.084-28.749-47.271l-43.46-22.513v-10.133c10.887-2.559 19.02-12.346 19.02-24.003v-32.878c-.001-13.599-11.064-24.662-24.663-24.662h-104.178c-13.598 0-24.661 11.063-24.661 24.662v32.878c0 12.664 9.596 23.125 21.898 24.503v9.633l-43.459 22.513c-17.733 9.186-28.749 27.299-28.749 47.271v16.007c0 4.142 3.358 7.5 7.5 7.5zm57.81-127.427v-32.878c0-5.328 4.334-9.662 9.661-9.662h104.178c5.328 0 9.662 4.334 9.662 9.662v32.878c0 5.328-4.334 9.662-9.662 9.662h-104.178c-5.327 0-9.661-4.334-9.661-9.662z" fill="#ffffff" data-original="#000000" style="" class=""/><path d="m412.336 246.703c-2.472-2.591-5.942-4.078-9.523-4.078h-186.891c-3.581 0-7.051 1.486-9.522 4.077s-3.791 6.129-3.621 9.706l1.676 35.236c.197 4.138 3.707 7.34 7.848 7.135 4.137-.197 7.332-3.71 7.135-7.848l-1.584-33.306h183.028l-10.162 213.7c-.684 14.365-12.483 25.617-26.864 25.617h-108.977c-14.38 0-26.18-11.252-26.863-25.617l-7.058-148.431c-.197-4.137-3.699-7.315-7.848-7.135-4.137.197-7.332 3.71-7.135 7.848l7.058 148.431c1.064 22.376 19.445 39.904 41.847 39.904h108.977c22.401 0 40.783-17.528 41.847-39.904l10.254-215.63c.168-3.576-1.151-7.114-3.622-9.705z" fill="#ffffff" data-original="#000000" style="" class=""/><path d="m257.741 481.941h103.253c7.965 0 14.5-6.232 14.878-14.188l6.63-139.417c.098-2.049-.648-4.048-2.063-5.532s-3.377-2.324-5.428-2.324h-131.286c-2.051 0-4.012.84-5.428 2.324s-2.161 3.483-2.064 5.532l6.629 139.417c.379 7.956 6.914 14.188 14.879 14.188zm103.154-15h-103.054l-2.725-57.317 13.746-5.355c12.284-4.785 25.868-3.737 37.273 2.875 8.918 5.171 19.052 7.798 29.209 7.798 7.422 0 14.857-1.403 21.835-4.242l6.516-2.651zm6.251-131.461-2.666 56.056-12.954 5.269c-12.26 4.987-26.415 4.001-37.868-2.638-15.373-8.914-33.688-10.325-50.242-3.875l-9.052 3.526-2.774-58.339h115.556z" fill="#ffffff" data-original="#000000" style="" class=""/></g></g></svg>
