<?xml version="1.0" encoding="utf-8"?>
<!-- Generator: Adobe Illustrator 22.1.0, SVG Export Plug-In . SVG Version: 6.00 Build 0)  -->
<svg version="1.1" id="Capa_1" xmlns="http://www.w3.org/2000/svg" xmlns:xlink="http://www.w3.org/1999/xlink" x="0px" y="0px"
	 viewBox="0 0 60 60" style="enable-background:new 0 0 60 60;" xml:space="preserve">
<style type="text/css">
	.st0{fill:#2F62F2;}
</style>
<g>
	<path class="st0" d="M30,0c-0.6,0-1,0.4-1,1v13.3c0,0.6,0.4,1,1,1s1-0.4,1-1V2c15,0.5,27,12.9,27,28c0,15.4-12.6,28-28,28
		S2,45.4,2,30c0-7.5,2.9-14.5,8.2-19.8c0.4-0.4,0.4-1,0-1.4c-0.4-0.4-1-0.4-1.4,0C3.1,14.5,0,22,0,30c0,16.5,13.5,30,30,30
		s30-13.5,30-30S46.5,0,30,0z"/>
	<path class="st0" d="M28.6,33.5c0.6,0.8,1.6,1.4,2.6,1.5c0.1,0,0.2,0,0.3,0c0.9,0,1.8-0.4,2.5-1c0.7-0.7,1.1-1.8,1-2.8
		s-0.6-2-1.5-2.6l-12.9-9.4c-0.4-0.3-0.9-0.2-1.3,0.1c-0.3,0.3-0.4,0.9-0.1,1.3L28.6,33.5z M32.4,30.2c0.4,0.3,0.6,0.7,0.6,1.1
		c0,0.5-0.1,0.9-0.5,1.2c-0.3,0.3-0.8,0.5-1.2,0.5c-0.5,0-0.9-0.3-1.1-0.6l-5.7-7.9L32.4,30.2z"/>
</g>
</svg>
