<?xml version="1.0" encoding="utf-8"?>
<!-- Generator: Adobe Illustrator 22.1.0, SVG Export Plug-In . SVG Version: 6.00 Build 0)  -->
<svg version="1.1" id="Layer_1" xmlns="http://www.w3.org/2000/svg" xmlns:xlink="http://www.w3.org/1999/xlink" x="0px" y="0px"
	 viewBox="0 0 512 512" style="enable-background:new 0 0 512 512;" xml:space="preserve">
<style type="text/css">
	.st0{fill:#2F62F2;}
</style>
<path class="st0" d="M74.8,232.4c-4,10.6-0.9,22.5,7.7,29.7c16.3,16.3,49.8,75.1,66.4,116.6c11.3,28.3,36.2,56,55,74.3
	c8.1,8,12.7,18.9,12.6,30.3v3.1c0,14.1,11.5,25.6,25.6,25.6h136.5c14.1,0,25.6-11.5,25.6-25.6v-26.2c-0.1-2.2,0.7-4.3,2.3-5.8
	c31.5-28.8,31.8-76.9,31.8-78.9v-135c0.3-18.3-13.5-33.7-31.6-35.5c-6.8-0.4-13.6,1.2-19.5,4.6v-13.3c0.1-12.3-6.5-23.7-17.2-29.7
	c-10.7-6.1-23.8-5.9-34.3,0.5c-1.1-11.5-8-21.7-18.3-26.9c-10.3-5.2-22.6-4.8-32.5,1.1v-14.1c21.2-12,34.2-34.5,34.1-58.9
	c0-37.7-30.6-68.2-68.2-68.2s-68.2,30.6-68.2,68.2c-0.1,24.3,13,46.8,34.1,58.9v137.3c0.2,10.1-1.1,20.1-4.1,29.7
	c-0.9,2.8-3.2,5-6.2,5.7c-2.7,0.7-5.6-0.1-7.7-2c-6.7-6.4-12.6-13.4-17.6-21.1c-14.8-22.1-52.1-63.5-75.4-63.5
	C92.6,213.1,80.5,220.6,74.8,232.4z M199.5,68.4c0-28.3,22.9-51.2,51.2-51.2s51.2,22.9,51.2,51.2c0.1,14.6-6.1,28.5-17.1,38.2V68.4
	c0-18.8-15.3-34.1-34.1-34.1s-34.1,15.3-34.1,34.1v38.2C205.6,96.9,199.4,83,199.5,68.4z M166.8,286.4c5.8,8.8,12.5,16.9,20.2,24.1
	c6.3,5.9,15.2,8.3,23.5,6.1c8.5-2.1,15.4-8.5,18.2-16.8c3.5-11.4,5.2-23.3,5-35.2V68.4c0-9.4,7.6-17.1,17.1-17.1s17.1,7.6,17.1,17.1
	v179.1c0,4.7,3.8,8.5,8.5,8.5c4.7,0,8.5-3.8,8.5-8.5v-76.8c0-9.4,7.6-17.1,17.1-17.1c9.4,0,17.1,7.6,17.1,17.1v76.8
	c0,4.7,3.8,8.5,8.5,8.5c4.7,0,8.5-3.8,8.5-8.5v-51.2c0-9.4,7.6-17.1,17.1-17.1c9.4,0,17.1,7.6,17.1,17.1v59.7c0,4.7,3.8,8.5,8.5,8.5
	c4.7,0,8.5-3.8,8.5-8.5V239c0-4.5,1.8-8.9,5-12.1c3.5-3.5,8.4-5.3,13.3-5c9.2,1.2,16,9.2,15.8,18.5v135c0,0.4-0.4,42.7-26.3,66.3
	c-5.1,4.8-7.9,11.4-7.8,18.4v26.2c0,4.7-3.8,8.5-8.5,8.5H242.1c-4.7,0-8.5-3.8-8.5-8.5v-3.1c0-16-6.4-31.3-17.8-42.5
	c-14.5-14-40.3-41.6-51-68.4c-17.6-43.9-52.3-104.4-70.1-122.3c-4.1-4.1-5.4-7.8-4-11.2c3.1-5.4,8.9-8.6,15.1-8.4
	C117.2,230.5,148.7,259.2,166.8,286.4z"/>
<path class="st0" d="M395.7,367c4.7,0,8.5-3.8,8.5-8.5v-51.2c0-4.7-3.8-8.5-8.5-8.5c-4.7,0-8.5,3.8-8.5,8.5v51.2
	C387.2,363.2,391,367,395.7,367z"/>
<path class="st0" d="M387.2,418.2c2.3,0,4.4-0.9,6-2.5c6.5-6,10.4-14.3,11-23.1c0-4.6-3.7-8.4-8.3-8.4c-4.7-0.1-8.5,3.6-8.7,8.2
	c-0.6,4.3-2.8,8.3-6,11.2c-2.4,2.4-3.2,6.1-1.8,9.3C380.6,416.1,383.7,418.2,387.2,418.2z"/>
<path class="st0" d="M259.2,477.9h8.5c4.7,0,8.5-3.8,8.5-8.5c0-4.7-3.8-8.5-8.5-8.5h-8.5c-4.7,0-8.5,3.8-8.5,8.5
	C250.7,474.1,254.5,477.9,259.2,477.9z"/>
<path class="st0" d="M301.9,477.9h59.7c4.7,0,8.5-3.8,8.5-8.5c0-4.7-3.8-8.5-8.5-8.5h-59.7c-4.7,0-8.5,3.8-8.5,8.5
	C293.3,474.1,297.2,477.9,301.9,477.9z"/>
<path class="st0" d="M182.4,141.2c3.4,0,6.5-2,7.8-5.1c1.4-3.1,0.7-6.8-1.6-9.2c-29.6-31.2-31.2-79.6-3.7-112.8
	c2-2.3,2.6-5.6,1.6-8.5c-1.1-2.9-3.6-5-6.7-5.5c-3.1-0.5-6.1,0.7-8.1,3.1c-32.9,39.8-31,97.8,4.4,135.3
	C177.8,140.3,180.1,141.2,182.4,141.2z"/>
<path class="st0" d="M330.3,118.6c2,1,4.4,1.2,6.5,0.5c2.2-0.7,3.9-2.2,5-4.2c18.7-36.3,13.9-80.3-12.2-111.7
	c-1.9-2.4-5-3.6-8.1-3.1c-3.1,0.5-5.6,2.6-6.7,5.5c-1.1,2.9-0.5,6.2,1.6,8.5c21.7,26.2,25.7,62.8,10.2,93
	C324.5,111.4,326.1,116.5,330.3,118.6z"/>
</svg>
